<svg width="1920" height="1920" viewBox="0 0 1920 1920" fill="none" xmlns="http://www.w3.org/2000/svg">
<g clip-path="url(#clip0_1585_14169)">
<rect width="1920" height="1920" fill="black"/>
<line x1="7065.61" y1="0.500488" x2="-921.595" y2="0.49979" stroke="#1C1C1C"/>
<line x1="7065.61" y1="77.3008" x2="-921.595" y2="77.3001" stroke="#1C1C1C"/>
<line x1="7065.61" y1="154.101" x2="-921.595" y2="154.1" stroke="#1C1C1C"/>
<line x1="7065.61" y1="230.901" x2="-921.595" y2="230.901" stroke="#1C1C1C"/>
<line x1="7065.61" y1="307.702" x2="-921.595" y2="307.701" stroke="#1C1C1C"/>
<line x1="7065.61" y1="384.502" x2="-921.595" y2="384.501" stroke="#1C1C1C"/>
<line x1="7065.61" y1="461.302" x2="-921.595" y2="461.302" stroke="#1C1C1C"/>
<line x1="7065.61" y1="538.103" x2="-921.595" y2="538.102" stroke="#1C1C1C"/>
<line x1="7065.61" y1="614.903" x2="-921.595" y2="614.902" stroke="#1C1C1C"/>
<line x1="7065.61" y1="691.704" x2="-921.595" y2="691.703" stroke="#1C1C1C"/>
<line x1="7065.61" y1="768.504" x2="-921.595" y2="768.503" stroke="#1C1C1C"/>
<line x1="7065.61" y1="845.304" x2="-921.595" y2="845.304" stroke="#1C1C1C"/>
<line x1="7065.61" y1="922.104" x2="-921.595" y2="922.104" stroke="#1C1C1C"/>
<line x1="7065.61" y1="998.905" x2="-921.595" y2="998.904" stroke="#1C1C1C"/>
<line x1="7065.61" y1="1075.71" x2="-921.595" y2="1075.7" stroke="#1C1C1C"/>
<line x1="7065.61" y1="1152.51" x2="-921.595" y2="1152.5" stroke="#1C1C1C"/>
<line x1="7065.61" y1="1229.31" x2="-921.595" y2="1229.31" stroke="#1C1C1C"/>
<line x1="7065.61" y1="1306.11" x2="-921.595" y2="1306.11" stroke="#1C1C1C"/>
<line x1="7065.61" y1="1382.91" x2="-921.595" y2="1382.91" stroke="#1C1C1C"/>
<line x1="7065.61" y1="1459.71" x2="-921.595" y2="1459.71" stroke="#1C1C1C"/>
<line x1="7065.61" y1="1536.51" x2="-921.595" y2="1536.51" stroke="#1C1C1C"/>
<line x1="7065.61" y1="1613.31" x2="-921.595" y2="1613.31" stroke="#1C1C1C"/>
<line x1="7065.61" y1="1690.11" x2="-921.595" y2="1690.11" stroke="#1C1C1C"/>
<line x1="7065.61" y1="1766.91" x2="-921.595" y2="1766.91" stroke="#1C1C1C"/>
<line x1="7065.61" y1="1843.71" x2="-921.595" y2="1843.71" stroke="#1C1C1C"/>
<line x1="0.5" y1="2.18555e-08" x2="0.499651" y2="7987.2" stroke="#1C1C1C"/>
<line x1="77.3008" y1="2.18555e-08" x2="77.3004" y2="7987.2" stroke="#1C1C1C"/>
<line x1="154.102" y1="2.18555e-08" x2="154.101" y2="7987.2" stroke="#1C1C1C"/>
<line x1="230.902" y1="2.18555e-08" x2="230.902" y2="7987.2" stroke="#1C1C1C"/>
<line x1="307.703" y1="2.18555e-08" x2="307.703" y2="7987.2" stroke="#1C1C1C"/>
<line x1="384.504" y1="2.18555e-08" x2="384.504" y2="7987.2" stroke="#1C1C1C"/>
<line x1="461.301" y1="2.18555e-08" x2="461.3" y2="7987.2" stroke="#1C1C1C"/>
<line x1="538.102" y1="2.18555e-08" x2="538.101" y2="7987.2" stroke="#1C1C1C"/>
<line x1="614.902" y1="2.18555e-08" x2="614.902" y2="7987.2" stroke="#1C1C1C"/>
<line x1="691.703" y1="2.18555e-08" x2="691.703" y2="7987.2" stroke="#1C1C1C"/>
<line x1="768.504" y1="2.18555e-08" x2="768.504" y2="7987.2" stroke="#1C1C1C"/>
<line x1="845.305" y1="2.18555e-08" x2="845.304" y2="7987.2" stroke="#1C1C1C"/>
<line x1="922.105" y1="2.18555e-08" x2="922.105" y2="7987.2" stroke="#1C1C1C"/>
<line x1="998.906" y1="2.18555e-08" x2="998.906" y2="7987.2" stroke="#1C1C1C"/>
<line x1="1075.71" y1="2.18555e-08" x2="1075.71" y2="7987.2" stroke="#1C1C1C"/>
<line x1="1152.5" y1="2.18555e-08" x2="1152.5" y2="7987.2" stroke="#1C1C1C"/>
<line x1="1229.3" y1="2.18555e-08" x2="1229.3" y2="7987.2" stroke="#1C1C1C"/>
<line x1="1306.11" y1="2.18555e-08" x2="1306.11" y2="7987.2" stroke="#1C1C1C"/>
<line x1="1382.91" y1="2.18555e-08" x2="1382.91" y2="7987.2" stroke="#1C1C1C"/>
<line x1="1459.71" y1="2.18555e-08" x2="1459.71" y2="7987.2" stroke="#1C1C1C"/>
<line x1="1536.51" y1="2.18555e-08" x2="1536.51" y2="7987.2" stroke="#1C1C1C"/>
<line x1="1613.31" y1="2.18555e-08" x2="1613.31" y2="7987.2" stroke="#1C1C1C"/>
<line x1="1690.11" y1="2.18555e-08" x2="1690.11" y2="7987.2" stroke="#1C1C1C"/>
<line x1="1766.91" y1="2.18555e-08" x2="1766.91" y2="7987.2" stroke="#1C1C1C"/>
<line x1="1843.71" y1="2.18555e-08" x2="1843.71" y2="7987.2" stroke="#1C1C1C"/>
</g>
<defs>
<clipPath id="clip0_1585_14169">
<rect width="1920" height="1920" fill="white"/>
</clipPath>
</defs>
</svg>
